<svg xmlns="http://www.w3.org/2000/svg" width="11" height="16" xml:space="preserve"><path d="M1.323.937a.475.475 0 0 0-.15.107c-.112.111-.155.241-.142.423.018.248.139.418.447.624.102.069.212.159.245.201.033.041.105.176.159.299.182.409.263.538.51.807.341.373.47.571.642.993.136.335.237.474.505.697.196.163.295.316.439.679.226.568.284.658.653 1.025.266.264.281.284.372.468.135.276.24.693.253 1.008.009.214.007.24-.039.376-.027.081-.139.33-.249.553-.216.441-.222.448-.584.783-.155.144-.24.28-.352.568-.167.431-.25.566-.527.86-.231.246-.3.359-.491.808-.185.434-.237.506-.547.744-.214.163-.303.276-.432.546a2.114 2.114 0 0 1-.475.672c-.271.279-.326.382-.394.736a7.115 7.115 0 0 0-.103.911v.162h.734v-.115c.001-.195.045-.39.111-.492.095-.148.283-.27.549-.356.274-.089.456-.232.645-.508.144-.211.281-.334.512-.463.331-.185.461-.288.677-.537.147-.17.265-.256.741-.542.436-.261.509-.316.745-.568.204-.218.321-.303.621-.453.311-.155.401-.22.624-.448.217-.222.319-.298.568-.422.3-.15.467-.272.705-.512.237-.24.384-.351.743-.56.472-.276.498-.294.736-.534.201-.202.252-.243.385-.309.183-.09.336-.125.626-.141L11 9.014V7.448l-.17-.009c-.229-.014-.36-.06-.664-.235a9.534 9.534 0 0 0-.486-.259c-.312-.153-.412-.224-.588-.421-.236-.263-.321-.327-.643-.481-.313-.151-.423-.231-.674-.49-.238-.246-.275-.274-.772-.576-.367-.224-.434-.275-.706-.541a2.291 2.291 0 0 0-.716-.509c-.273-.136-.345-.191-.622-.47-.185-.187-.244-.235-.376-.302-.432-.223-.622-.363-.855-.631-.117-.134-.287-.273-1.015-.832a6.218 6.218 0 0 1-.367-.308c-.221-.202-.36-.302-.54-.388a.59.59 0 0 0-.282-.073.782.782 0 0 0-.201.014" fill-rule="evenodd"/></svg>