<?xml version="1.0" encoding="UTF-8"?>
<!DOCTYPE svg PUBLIC "-//W3C//DTD SVG 1.1//EN" "http://www.w3.org/Graphics/SVG/1.1/DTD/svg11.dtd">
<svg xmlns="http://www.w3.org/2000/svg" version="1.1" width="256px" height="256px" style="shape-rendering:geometricPrecision; text-rendering:geometricPrecision; image-rendering:optimizeQuality; fill-rule:evenodd; clip-rule:evenodd" xmlns:xlink="http://www.w3.org/1999/xlink">
<g><path style="opacity:0.957" fill="#000000" d="M 119.5,7.5 C 124.833,7.5 130.167,7.5 135.5,7.5C 135.333,69.1676 135.5,130.834 136,192.5C 148.639,173.197 165.139,158.03 185.5,147C 194.158,142.754 202.992,138.921 212,135.5C 212.772,135.645 213.439,135.978 214,136.5C 215.199,141.265 216.699,145.931 218.5,150.5C 194.441,159.619 173.608,173.619 156,192.5C 142.732,208.381 136.232,226.715 136.5,247.5C 130.5,247.5 124.5,247.5 118.5,247.5C 118.768,226.715 112.268,208.381 99,192.5C 81.3921,173.619 60.5587,159.619 36.5,150.5C 38.3006,145.931 39.8006,141.265 41,136.5C 41.5613,135.978 42.228,135.645 43,135.5C 75.0051,145.868 100.338,164.868 119,192.5C 119.5,130.834 119.667,69.1676 119.5,7.5 Z"/></g>
</svg>
